<!DOCTYPE svg PUBLIC "-//W3C//DTD SVG 1.1//EN" "http://www.w3.org/Graphics/SVG/1.1/DTD/svg11.dtd">
<svg xmlns="http://www.w3.org/2000/svg" xmlns:xlink="http://www.w3.org/1999/xlink" version="1.1" width="1080" height="1080" viewBox="0 0 1080 1080" xml:space="preserve">
<desc>Created with Fabric.js 5.2.4</desc>
<defs>
</defs>
<g transform="matrix(1 0 0 1 540 540)" id="fbbebb9a-8943-46c3-a662-5730ab277318"  >
<rect style="stroke: none; stroke-width: 1; stroke-dasharray: none; stroke-linecap: butt; stroke-dashoffset: 0; stroke-linejoin: miter; stroke-miterlimit: 4; fill: rgb(255,255,255); fill-rule: nonzero; opacity: 1; visibility: hidden;" vector-effect="non-scaling-stroke"  x="-540" y="-540" rx="0" ry="0" width="1080" height="1080" />
</g>
<g transform="matrix(1 0 0 1 540 540)" id="b6d2ebd0-89a0-4ae5-89c1-73e6fc801435"  >
</g>
<g transform="matrix(11.63 0 0 6.57 540 637.19)" id="31872c0c-3873-4419-b3e1-c281d7241434"  >
<rect style="stroke: rgb(0,0,0); stroke-width: 0; stroke-dasharray: none; stroke-linecap: butt; stroke-dashoffset: 0; stroke-linejoin: miter; stroke-miterlimit: 4; fill: rgb(255,255,255); fill-rule: nonzero; opacity: 01;" vector-effect="non-scaling-stroke"  x="-33.0835" y="-33.0835" rx="0" ry="0" width="66.167" height="66.167" />
</g>
<g transform="matrix(45 0 0 45 540 540)"  >
<path style="stroke: none; stroke-width: 1; stroke-dasharray: none; stroke-linecap: butt; stroke-dashoffset: 0; stroke-linejoin: miter; stroke-miterlimit: 4; fill: rgb(255,252,7); fill-rule: nonzero; opacity: 1;"  transform=" translate(-12, -12)" d="M 6 3 C 4.34315 3 3 4.34315 3 6 L 3 18 C 3 19.6569 4.34315 21 6 21 L 18 21 C 19.6569 21 21 19.6569 21 18 L 21 6 C 21 4.34315 19.6569 3 18 3 L 6 3 Z M 13.3344 16.055 C 14.0531 16.6343 14.7717 16.9203 15.4904 16.913 C 15.9304 16.913 16.2677 16.8323 16.5024 16.671 C 16.7297 16.517 16.8434 16.297 16.8434 16.011 C 16.8434 15.7177 16.7297 15.4683 16.5024 15.263 C 16.2677 15.0577 15.8241 14.8523 15.1714 14.647 C 14.3867 14.4197 13.7817 14.1263 13.3564 13.767 C 12.9384 13.4077 12.7257 12.9053 12.7184 12.26 C 12.7184 11.6513 12.9824 11.1417 13.5104 10.731 C 14.0237 10.3203 14.6801 10.115 15.4794 10.115 C 16.5941 10.115 17.4887 10.3863 18.1634 10.929 L 17.3934 12.128 C 17.1221 11.9153 16.8104 11.7613 16.4584 11.666 C 16.1064 11.556 15.7911 11.501 15.5124 11.501 C 15.1311 11.501 14.8267 11.5707 14.5994 11.71 C 14.3721 11.8493 14.2584 12.0327 14.2584 12.26 C 14.2584 12.5093 14.3977 12.722 14.6764 12.898 C 14.9551 13.0667 15.4317 13.2537 16.1064 13.459 C 16.9204 13.701 17.4997 14.0237 17.8444 14.427 C 18.1891 14.8303 18.3614 15.3437 18.3614 15.967 C 18.3614 16.605 18.1157 17.155 17.6244 17.617 C 17.1404 18.0717 16.4364 18.31 15.5124 18.332 C 14.3024 18.332 13.2904 17.969 12.4764 17.243 L 13.3344 16.055 Z M 7.80405 16.693 C 8.03872 16.8397 8.32105 16.913 8.65105 16.913 C 8.99572 16.913 9.28172 16.814 9.50905 16.616 C 9.73639 16.4107 9.85005 16.055 9.85005 15.549 L 9.85005 10.247 L 11.3351 10.247 L 11.3351 15.835 C 11.3131 16.7003 11.0637 17.3237 10.5871 17.705 C 10.3157 17.9323 10.0187 18.0937 9.69605 18.189 C 9.37339 18.2843 9.06172 18.332 8.76105 18.332 C 8.21105 18.332 7.72339 18.2367 7.29805 18.046 C 6.84339 17.8407 6.46205 17.4777 6.15405 16.957 L 7.18805 16.11 C 7.37872 16.3667 7.58405 16.561 7.80405 16.693 Z" stroke-linecap="round" />
</g>
</svg>